<svg xmlns="http://www.w3.org/2000/svg" shape-rendering="geometricPrecision" text-rendering="geometricPrecision" image-rendering="optimizeQuality" fill-rule="evenodd" clip-rule="evenodd" viewBox="0 0 464 511.863"><path d="M21.123 259.247h16.714V52.395C37.837 23.601 61.438 0 90.232 0h230.505a7.998 7.998 0 016.39 3.183l96.876 104.809a7.937 7.937 0 012.118 5.411h.041v145.844h16.714c11.618 0 21.124 9.525 21.124 21.124v163.863c0 11.599-9.526 21.124-21.124 21.124h-17.058c-3.001 25.877-25.473 46.505-52.051 46.505H90.232c-26.72 0-49.082-20.526-52.055-46.505H21.123C9.526 465.358 0 455.853 0 444.234V280.371c0-11.619 9.506-21.124 21.123-21.124zm32.731 0h356.292V136.525h-32.219v-.033h-.124c-19.111-.302-34.068-5.373-44.736-14.486-11.073-9.458-17.282-22.969-18.52-39.763l-.075-1.098V16.016H90.232c-20.032 0-36.378 16.346-36.378 36.379v206.852zm355.795 206.111H54.344c2.862 17.157 17.981 30.488 35.888 30.488h283.535c17.803 0 32.993-13.394 35.882-30.488zm-177.827-332.58c1.2-5.152 6.352-8.357 11.505-7.158 5.153 1.2 8.357 6.352 7.158 11.505l-20.773 88.972c-1.199 5.153-6.352 8.358-11.504 7.158-5.153-1.199-8.358-6.352-7.158-11.505l20.772-88.972zm-32.519 71.317c3.972 3.477 4.377 9.521.9 13.493-3.478 3.973-9.521 4.377-13.494.9l-36.354-31.854c-3.972-3.477-4.377-9.521-.9-13.493.295-.336.606-.644.933-.927l36.321-31.826c3.973-3.478 10.016-3.073 13.494.899 3.477 3.973 3.072 10.016-.9 13.494l-28.14 24.656 28.14 24.658zm77.99 14.393c-3.972 3.477-10.016 3.073-13.493-.9-3.478-3.972-3.073-10.016.899-13.493l28.14-24.658-28.14-24.656c-3.972-3.478-4.377-9.521-.899-13.494 3.477-3.972 9.521-4.377 13.493-.899l36.318 31.826c.328.283.639.591.933.927 3.477 3.972 3.073 10.016-.899 13.493l-36.352 31.854zm53.174-188.216V81.11c.913 12.412 5.265 22.192 12.97 28.775 7.822 6.682 19.34 10.418 34.49 10.676v-.03h32.219v-4.052l-79.679-86.207zM158.36 404.76h-28.667l22.01-84.916h41.985l22.011 84.916h-28.671l-3.122-13.452h-22.421l-3.125 13.452zm13.587-58.829l-5.57 23.777h12.5l-5.433-23.777h-1.497zm96.807 38.313H251.09v20.516h-27.174v-84.916h42.8c19.474 0 29.21 10.462 29.21 31.385 0 11.502-2.537 20.016-7.607 25.543-1.903 2.083-4.528 3.849-7.881 5.298-3.351 1.45-7.247 2.174-11.684 2.174zm-17.664-42.662v20.924h6.25c3.26 0 5.64-.339 7.134-1.018 1.493-.68 2.242-2.242 2.242-4.688v-9.513c0-2.445-.749-4.008-2.242-4.685-1.494-.679-3.874-1.02-7.134-1.02h-6.25zm56.043 63.178v-84.916h27.174v84.916h-27.174z"/></svg>