<?xml version="1.0" encoding="UTF-8" standalone="no"?>
<svg
   width="16"
   height="16"
   fill="currentColor"
   class="bi bi-envelope-at"
   viewBox="0 0 16 16"
   version="1.1"
   id="svg2"
   sodipodi:docname="envelope-at.svg"
   xmlns:inkscape="http://www.inkscape.org/namespaces/inkscape"
   xmlns:sodipodi="http://sodipodi.sourceforge.net/DTD/sodipodi-0.dtd"
   xmlns="http://www.w3.org/2000/svg"
   xmlns:svg="http://www.w3.org/2000/svg">
  <defs
     id="defs2" />
  <sodipodi:namedview
     id="namedview2"
     pagecolor="#ffffff"
     bordercolor="#000000"
     borderopacity="0.25"
     inkscape:showpageshadow="2"
     inkscape:pageopacity="0.0"
     inkscape:pagecheckerboard="0"
     inkscape:deskcolor="#d1d1d1" />
  <path
     d="M 2,2 A 2,2 0 0 0 0,4 v 8.01 A 2,2 0 0 0 2,14 h 5.5 a 0.5,0.5 0 0 0 0,-1 H 2 A 1,1 0 0 1 1.034,12.259 L 6.674,8.788 8,9.583 15,5.383 V 8.5 a 0.5,0.5 0 0 0 1,0 V 4 A 2,2 0 0 0 14,2 Z M 5.708,8.208 1,11.105 V 5.383 Z M 1,4.217 V 4 A 1,1 0 0 1 2,3 h 12 a 1,1 0 0 1 1,1 v 0.217 l -7,4.2 z"
     id="path1" />
  <path
     d="m 14.247,14.269 c 1.01,0 1.587,-0.857 1.587,-2.025 v -0.21 C 15.834,10.43 14.64,9 12.52,9 H 12.485 C 10.42,9 9,10.36 9,12.432 v 0.214 C 9,14.82 10.438,16 12.358,16 h 0.044 c 0.594,0 1.018,-0.074 1.237,-0.175 v -0.73 c -0.245,0.11 -0.673,0.18 -1.18,0.18 h -0.044 c -1.334,0 -2.571,-0.788 -2.571,-2.655 v -0.157 c 0,-1.657 1.058,-2.724 2.64,-2.724 h 0.04 c 1.535,0 2.484,1.05 2.484,2.326 v 0.118 c 0,0.975 -0.324,1.39 -0.639,1.39 -0.232,0 -0.41,-0.148 -0.41,-0.42 v -2.19 h -0.906 v 0.569 h -0.03 c -0.084,-0.298 -0.368,-0.63 -0.954,-0.63 -0.778,0 -1.259,0.555 -1.259,1.4 v 0.528 c 0,0.892 0.49,1.434 1.26,1.434 0.471,0 0.896,-0.227 1.014,-0.643 h 0.043 c 0.118,0.42 0.617,0.648 1.12,0.648 m -2.453,-1.588 v -0.227 c 0,-0.546 0.227,-0.791 0.573,-0.791 0.297,0 0.572,0.192 0.572,0.708 v 0.367 c 0,0.573 -0.253,0.744 -0.564,0.744 -0.354,0 -0.581,-0.215 -0.581,-0.8 z"
     id="path2" />
</svg>
